<svg width="64" height="64" viewBox="0 0 64 64" fill="none" xmlns="http://www.w3.org/2000/svg">
  <rect width="64" height="64" rx="12" fill="#FDF4DC"/>
  <path d="M20 20C20 17.7909 21.7909 16 24 16C24.543 16 25.0536 16.1214 25.5 16.3364C26.0406 14.9306 27.4082 14 29 14C30.5918 14 31.9594 14.9306 32.5 16.3364C32.9464 16.1214 33.457 16 34 16C36.2091 16 38 17.7909 38 20H20Z" fill="#F59E0B"/>
  <path d="M18 22H42L39 52H21L18 22Z" fill="#FBBF24"/>
  <path d="M24 52L22 24H26L28 52H24Z" fill="#DC2626"/>
  <path d="M34 52L36 24H32L30 52H34Z" fill="#DC2626"/>
</svg>
