<?xml version="1.0" encoding="iso-8859-1"?>
<!-- Uploaded to: SVG Repo, www.svgrepo.com, Generator: SVG Repo Mixer Tools -->
<svg fill="#000000" height="800px" width="800px" version="1.1" id="Layer_1" xmlns="http://www.w3.org/2000/svg" xmlns:xlink="http://www.w3.org/1999/xlink" 
	 viewBox="0 0 512 512" xml:space="preserve">
<g>
	<g>
		<g>
			<path d="M298.667,102.4c-4.702,0-8.533-3.831-8.533-8.533c0-4.71-3.823-8.533-8.533-8.533c-4.71,0-8.533,3.823-8.533,8.533
				c0,14.114,11.486,25.6,25.6,25.6c4.71,0,8.533-3.823,8.533-8.533S303.377,102.4,298.667,102.4z"/>
			<path d="M366.933,119.467c4.71,0,8.533-3.823,8.533-8.533c0-4.702,3.831-8.533,8.533-8.533c4.71,0,8.533-3.823,8.533-8.533
				c0-4.71-3.823-8.533-8.533-8.533c-14.114,0-25.6,11.486-25.6,25.6C358.4,115.644,362.223,119.467,366.933,119.467z"/>
			<path d="M76.8,119.467c4.71,0,8.533-3.823,8.533-8.533c0-9.412,7.654-17.067,17.067-17.067c1.843,0,3.738,0.358,5.786,1.101
				c2.705,0.998,5.717,0.538,8.021-1.186c2.304-1.715,3.584-4.489,3.405-7.356c-0.009-0.213-0.12-0.879-0.145-1.092
				c0-9.412,7.654-17.067,17.067-17.067c2.313,0,4.557,0.461,6.673,1.357c2.987,1.271,6.434,0.742,8.9-1.382
				c2.466-2.108,3.507-5.444,2.705-8.593c-0.828-3.217-1.212-5.905-1.212-8.448c0-18.825,15.309-34.133,34.133-34.133
				c14.046,0,26.479,8.491,31.676,21.623c1.126,2.842,3.686,4.873,6.724,5.308c3.021,0.444,6.059-0.794,7.936-3.2
				c3.302-4.233,8.183-6.664,13.397-6.664c6.869,0,13.047,4.087,15.727,10.419c1.289,3.063,4.241,5.086,7.561,5.205
				c3.405,0.188,6.4-1.698,7.902-4.651c8.806-17.297,26.283-28.041,45.611-28.041c28.237,0,51.2,22.963,51.2,51.021
				c-0.009,0.196-0.043,0.845-0.043,1.05c0,2.56,1.152,4.992,3.14,6.605c1.988,1.63,4.608,2.261,7.108,1.749
				c2.244-0.461,4.548-0.691,6.861-0.691c18.825,0,34.133,15.309,34.133,34.133c0,4.71,3.823,8.533,8.533,8.533
				s8.533-3.823,8.533-8.533c0-28.237-22.963-51.2-51.2-51.2h-0.529C387.789,26.103,359.023,0,324.267,0
				c-21.274,0-40.858,9.745-53.649,26.103c-6.178-5.7-14.379-9.037-23.151-9.037c-6.34,0-12.425,1.758-17.69,5.001
				C220.373,8.38,204.86,0,187.733,0c-28.237,0-51.2,22.963-51.2,51.2c-15.881,0-29.269,10.906-33.058,25.617
				C84.25,76.194,68.267,91.75,68.267,110.933C68.267,115.644,72.09,119.467,76.8,119.467z"/>
			<path d="M336.333,92.399c1.664,1.664,3.849,2.5,6.033,2.5c2.185,0,4.369-0.836,6.033-2.5
				c6.443-6.451,10.001-15.019,10.001-24.132c0-9.122-3.558-17.69-10.001-24.132c-13.295-13.312-34.953-13.312-48.273-0.009
				c-3.328,3.328-3.328,8.73,0,12.066c3.336,3.337,8.738,3.337,12.066,0c6.656-6.639,17.485-6.647,24.141,0.009
				c3.226,3.217,5.001,7.501,5.001,12.066c0,4.557-1.775,8.841-5.001,12.066C332.996,83.669,332.996,89.071,336.333,92.399z"/>
			<path d="M441.54,139.358c-1.613-1.8-3.925-2.825-6.34-2.825H196.267c-4.71,0-8.533,3.823-8.533,8.533
				c0,4.71,3.823,8.533,8.533,8.533h229.453L392.61,468.156c-1.707,12.356-9.463,26.778-25.677,26.778H145.067
				c-16.247,0-23.987-14.413-25.643-26.487L86.281,153.6h58.786c18.825,0,34.133-15.309,34.133-34.133s-15.309-34.133-34.133-34.133
				c-4.71,0-8.533,3.823-8.533,8.533c0,4.71,3.823,8.533,8.533,8.533c9.412,0,17.067,7.654,17.067,17.067
				s-7.654,17.067-17.067,17.067H76.8c-2.415,0-4.727,1.024-6.34,2.825c-1.621,1.801-2.398,4.198-2.15,6.596l34.167,324.54
				c3.405,24.823,20.523,41.506,42.59,41.506h221.867c22.025,0,39.134-16.674,42.624-41.779l34.133-324.267
				C443.938,143.556,443.162,141.158,441.54,139.358z"/>
			<path d="M144.316,170.701c-4.693,0.41-8.158,4.557-7.748,9.25l25.6,290.133c0.393,4.437,4.113,7.782,8.491,7.782
				c0.247,0,0.503-0.009,0.759-0.034c4.693-0.41,8.158-4.557,7.748-9.25l-25.6-290.133
				C153.156,173.756,149.069,170.351,144.316,170.701z"/>
			<path d="M187.733,324.267c0,24.141,12.621,45.338,31.59,57.481l2.543,87.834c0.137,4.625,3.925,8.286,8.533,8.286h0.247
				c4.71-0.145,8.422-4.07,8.286-8.781l-2.313-79.394c6.153,1.826,12.646,2.842,19.379,2.842c6.733,0,13.227-1.015,19.379-2.842
				l-2.313,79.394c-0.137,4.71,3.576,8.636,8.286,8.781h0.247c4.608,0,8.397-3.661,8.533-8.286l2.543-87.834
				c18.97-12.143,31.59-33.34,31.59-57.481c0-22.536-11.025-42.487-27.904-54.929l2.304-89.924c0.119-4.702-3.601-8.619-8.32-8.747
				c-4.762-0.401-8.627,3.601-8.747,8.32l-2.074,81.28C272.179,257.553,264.277,256,256,256c-8.277,0-16.179,1.553-23.526,4.267
				l-2.074-81.28c-0.12-4.642-3.917-8.32-8.533-8.32h-0.213c-4.719,0.128-8.439,4.045-8.32,8.747l2.304,89.924
				C198.758,281.779,187.733,301.73,187.733,324.267z M256,273.067c28.237,0,51.2,22.963,51.2,51.2c0,28.237-22.963,51.2-51.2,51.2
				s-51.2-22.963-51.2-51.2C204.8,296.03,227.763,273.067,256,273.067z"/>
			<path d="M341.342,477.867c4.378,0,8.098-3.345,8.491-7.782l25.6-290.133c0.41-4.693-3.055-8.841-7.748-9.25
				c-4.642-0.358-8.832,3.063-9.25,7.748l-25.6,290.133c-0.41,4.693,3.055,8.841,7.748,9.25
				C340.838,477.858,341.094,477.867,341.342,477.867z"/>
			<path d="M213.333,110.933c4.71,0,8.533-3.823,8.533-8.533c0-9.412,7.654-17.067,17.067-17.067c4.71,0,8.533-3.823,8.533-8.533
				s-3.823-8.533-8.533-8.533c-18.825,0-34.133,15.309-34.133,34.133C204.8,107.11,208.623,110.933,213.333,110.933z"/>
			<path d="M196.267,34.133c-14.114,0-25.6,11.486-25.6,25.6c0,4.71,3.823,8.533,8.533,8.533s8.533-3.823,8.533-8.533
				c0-4.702,3.831-8.533,8.533-8.533c4.71,0,8.533-3.823,8.533-8.533C204.8,37.956,200.977,34.133,196.267,34.133z"/>
		</g>
	</g>
</g>
</svg>